<svg xmlns="http://www.w3.org/2000/svg" viewBox="0 0 443.59 103.95"><path fill="#231f20" d="M0 0h220.9v103.95H0z"/><path fill="#fff" d="M259.2 34a12.73 12.73 0 004.54-.76 4.83 4.83 0 003.34-4.67 4.33 4.33 0 00-2.56-4.1 6.68 6.68 0 00-1-.4 4.44 4.44 0 003-4.34 4.2 4.2 0 00-2.78-4.08 13.46 13.46 0 00-5.06-.78h-7.8V34h8.32zm-3.28-15.65h2.54a4.1 4.1 0 011.8.3c.5.27.88.65.9 1.78s-.4 1.5-.88 1.77a4.16 4.16 0 01-1.8.3h-2.55zm0 12.05V26h2.9a4.16 4.16 0 011.87.3c.5.3.87.7.9 1.87s-.4 1.57-.9 1.85a4.22 4.22 0 01-1.9.3h-2.88zm30.03 3.85c2.9 0 5-.64 6.5-1.84a6.14 6.14 0 002.16-5V14.86h-4.9v11.83c0 1.6-.3 2.52-.8 3a3.75 3.75 0 01-2.72.73 3.8 3.8 0 01-2.75-.72c-.5-.5-.8-1.4-.8-3V14.84h-5.3v12.6a6.27 6.27 0 001.87 4.76c1.4 1.28 3.56 2.05 6.75 2.05zM311 26.07a35.6 35.6 0 013.6 1c1 .4 1.35.77 1.35 1.36s-.47 1.17-1.32 1.54a7.7 7.7 0 01-2.75.47 25.5 25.5 0 01-3.84-.37c-1.14-.18-2-.37-2-.37l-.63-.14v4l.4.1a31 31 0 006.44.66 13.38 13.38 0 006-1.3 5.36 5.36 0 003.13-4.88c0-3.8-3.1-5-5.78-5.54a31 31 0 01-3.64-.9c-.95-.4-1.34-.77-1.35-1.48s.46-1 1.3-1.37a8.22 8.22 0 012.64-.4 23.26 23.26 0 013.22.24c.86.1 1.43.23 1.43.23l.62.13v-3.9l-.4-.1a28 28 0 00-5.3-.53 12.8 12.8 0 00-6.1 1.25 5.2 5.2 0 00-2.8 4.82c.04 3.6 3.1 4.8 5.78 5.47zm20.68-11.22h5.2v19.12h-5.2zm35.3 0h-4.55V27.9l-7.55-13.05h-6.48v19.1h4.55V20.8l7.58 13.18h6.45v-19.1m26.05 15.25h-9.3V26.1h6.37v-3.8h-6.37v-3.6h9.1v-3.83H378.5v19.1h14.53v-3.82m19.55-7.6a31 31 0 01-3.63-.9c-.95-.4-1.34-.77-1.35-1.48s.45-1 1.3-1.37a8.24 8.24 0 012.62-.4 25.87 25.87 0 014.65.48l.63.13v-3.85l-.4-.1a28 28 0 00-5.3-.52 12.82 12.82 0 00-6.1 1.25 5.2 5.2 0 00-2.8 4.82c0 3.58 3.08 4.78 5.73 5.46a35.5 35.5 0 013.6 1c1 .4 1.35.77 1.35 1.36s-.47 1.17-1.32 1.54a7.68 7.68 0 01-2.75.47 25.5 25.5 0 01-3.84-.37c-1.14-.18-2-.37-2-.37l-.63-.15v4l.4.1a31 31 0 006.43.66 13.36 13.36 0 006-1.28 5.36 5.36 0 003.13-4.9c.07-3.8-3.04-4.98-5.72-5.57zm25.22 0a31 31 0 01-3.63-.9c-.95-.4-1.34-.77-1.35-1.48s.45-1 1.3-1.37a8.2 8.2 0 012.63-.4 23.26 23.26 0 013.22.24c.87.12 1.43.24 1.44.24l.6.12v-3.85l-.4-.1a28 28 0 00-5.3-.52 12.82 12.82 0 00-6.1 1.25 5.2 5.2 0 00-2.8 4.82c0 3.58 3.08 4.78 5.73 5.46a35.5 35.5 0 013.6 1c1 .4 1.35.77 1.35 1.36s-.47 1.17-1.3 1.54a7.67 7.67 0 01-2.76.47 25.57 25.57 0 01-3.85-.37c-1.14-.2-2-.37-2-.37l-.63-.15v4l.4.1a31.1 31.1 0 006.43.66 13.37 13.37 0 006-1.28 5.36 5.36 0 003.13-4.9c.1-3.8-3.02-4.98-5.7-5.57zM264.27 44.2h-6.33l-8 19.4h5.7l1.54-4.18h7.5l1.57 4.2H272l-.3-.73zm-5.78 11.54l2.44-7 2.38 7zm24.34 5.79a13.2 13.2 0 008.17 2.4 34.43 34.43 0 005.3-.44l.44-.1v-3.8l-.6.1a33 33 0 01-3.88.27c-5-.1-7.1-1.52-7.18-6.07.08-4.55 2.16-6 7.18-6.07a33.84 33.84 0 013.88.28l.6.1v-3.8l-.44-.08a34.43 34.43 0 00-5.3-.43 13.2 13.2 0 00-8.12 2.38 9.17 9.17 0 00-3.44 7.62 9.18 9.18 0 003.4 7.63zM319 59.4l1.57 4.2h5.75l-.3-.73-7.4-18.67h-6.33l-8 19.4h5.7l1.53-4.2zm-3.7-10.68l2.37 7h-4.83zM343 63.6a14.73 14.73 0 007-1.33c2.34-1.26 4.14-3.82 4.12-8.37s-1.77-7.1-4.1-8.36a14.58 14.58 0 00-7-1.34h-7.8v19.4H343zM340.54 48h2.82a5.86 5.86 0 013.46.8c1 .73 1.82 2.1 1.83 5.1s-.8 4.33-1.8 5.05a5.65 5.65 0 01-3.4.8h-2.9zm39.03.1v-3.9h-14.53v19.4h14.73v-3.9h-9.42v-4.1h6.46v-3.8h-6.45v-3.7h9.22m15.08 1.35l4.06 14.15h5.66l4.2-14.1.9 14.1h5.2l-1.93-19.4h-7.16l-.12.4-3.63 12.75-3.6-13.14h-7.44l-1.9 19.4h4.6l1.16-14.15m40.58 14.14v-7.5l8-11.9h-5.74l-4.68 7.7-4.62-7.7h-6.3l7.98 11.88v7.52h5.36M258.95 80a24 24 0 01-2.9-.73c-.74-.3-1.05-.6-1.06-1.17s.35-.83 1-1.1a6.48 6.48 0 012.08-.32 18.4 18.4 0 012.56.2c.7.1 1.14.18 1.14.18l.5.1V74.1L262 74a22.3 22.3 0 00-4.2-.42 10.2 10.2 0 00-4.85 1 4.15 4.15 0 00-2.23 3.83c0 2.85 2.44 3.8 4.55 4.35a27.7 27.7 0 012.87.8c.76.32 1.07.6 1.07 1.08s-.37.93-1 1.22a6.12 6.12 0 01-2.18.38 20.64 20.64 0 01-3.06-.3c-.9-.14-1.57-.3-1.57-.28l-.5-.1v3.15l.3.08a24.6 24.6 0 005.12.52 10.64 10.64 0 004.8-1 4.26 4.26 0 002.48-3.9c-.05-3.03-2.52-3.95-4.65-4.4zm20.53-6.46a8.85 8.85 0 00-6.08 2 8.6 8.6 0 000 11.76 10.12 10.12 0 0012.16 0 8.6 8.6 0 000-11.76 8.85 8.85 0 00-6.08-2zm0 12.75c-1.76 0-2.68-.56-3.24-1.4a6.28 6.28 0 01-.75-3.44 6.42 6.42 0 01.74-3.47c.56-.86 1.48-1.4 3.24-1.42 3.46 0 4 2.08 4 4.84-.06 2.78-.57 4.83-4.03 4.87zm26.76-3.03a3.3 3.3 0 01-.63 2.4 3 3 0 01-2.16.57 3 3 0 01-2.2-.58 3.26 3.26 0 01-.63-2.4v-9.4h-4.2v10a5 5 0 001.48 3.77c1.1 1 2.8 1.63 5.35 1.63a8 8 0 005.18-1.46 4.9 4.9 0 001.72-3.95v-10h-3.9zm11.2-6.31h4.8v12.1h4.2v-12.1h4.82v-3.1h-13.82v3.1m31.36 2.75h-6v-5.85h-4.13v15.2h4.14v-6.28h6v6.28h4.14v-15.2h-4.14v5.85m28.13 4.35l-2.6-10.2H370l-2.77 10.18-2.3-10.2h-4.52l4.5 15.22h4.4l2.56-9.82 2.7 9.82h4.27l4.44-15.2h-3.82l-2.5 10.2m17.94-1.25h5.1v-3.02h-5.07v-2.9h7.24v-3.04h-11.4v15.2h11.56V86h-7.4v-3.2m22.93-2.8a24.1 24.1 0 01-2.9-.73c-.74-.3-1.06-.6-1.06-1.17s.36-.83 1-1.1a6.5 6.5 0 012.1-.32 18.36 18.36 0 012.55.2c.7.1 1.14.18 1.14.18l.5.1V74.1l-.3-.1a22.25 22.25 0 00-4.2-.42 10.2 10.2 0 00-4.85 1 4.14 4.14 0 00-2.23 3.83c0 2.85 2.44 3.8 4.55 4.35a27.83 27.83 0 012.87.8c.76.32 1.07.6 1.07 1.08s-.37.93-1 1.22a6.12 6.12 0 01-2.18.38 20.66 20.66 0 01-3.06-.3c-.9-.14-1.57-.3-1.57-.28l-.5-.1v3.15l.3.08a24.6 24.6 0 005.13.52 10.63 10.63 0 004.8-1 4.26 4.26 0 002.48-3.9c-.04-3.03-2.5-3.95-4.64-4.4zm10.44-6.15v3.1h4.8v12.1h4.22v-12.1h4.8v-3.1h-13.8"/><path fill="#fdb93b" d="M14.85 88.78h87.24V73.94H29.7V29.38h57.54v14.85H29.7v14.85h72.4V14.54H14.84v74.24"/><path fill="#00aeef" d="M116.94 29.4h74.25v44.53h-59.4V59.1h59.4V44.22h-74.26v44.55h89.1V14.54h-89.1V29.4"/></svg>